<svg xmlns="http://www.w3.org/2000/svg" viewBox="0 0 988.45 1000"><defs><style>.cls-1{fill:#ff931e;}.cls-2{fill:#ff1500;}.cls-3{font-size:78.92px;font-family:ColonnaMT, Colonna MT;}</style></defs><g id="Capa_2" data-name="Capa 2"><g id="Capa_1-2" data-name="Capa 1"><path class="cls-1" d="M666.4,853,969,758.85,601.32,732,504.73,552.43,366,714.79,0,709.42l301,115.1q-52.75,88-107.32,175.48L506,902.88,741.75,993Z"/><path class="cls-2" d="M784.74,285.12C761.25,190,668.71,6.27,478.92.16,292-5.86,154,162.53,154,271.87c0,116.81,249.69,108.46,324.9,271.72C534.4,664,456,762.41,488.67,774.54,543.4,794.88,850.29,550.54,784.74,285.12ZM464.3,356.78c-89.72,0-162.45-60.82-162.45-135.85S374.58,85.07,464.3,85.07s162.46,60.82,162.46,135.86S554,356.78,464.3,356.78Z"/><text class="cls-3" transform="translate(965.36 544.35) scale(1.2 1)"> </text></g></g></svg>